{
  "accessors": [
    {
      "bufferView": 2,
      "componentType": 5126,
      "count": 10772,
      "max": [
        7.699534893035889,
        4.470483779907227,
        13.343149185180664
      ],
      "min": [
        -5.553627967834473,
        -3.8234310150146484,
        -0.10213600099086761
      ],
      "type": "VEC3"
    },
    {
      "bufferView": 2,
      "byteOffset": 129264,
      "componentType": 5126,
      "count": 10772,
      "max": [
        0.999976634979248,
        0.9999632835388184,
        0.9997056126594543
      ],
      "min": [
        -0.9988228678703308,
        -0.9999194145202637,
        -0.9997777342796326
      ],
      "type": "VEC3"
    },
    {
      "bufferView": 1,
      "componentType": 5126,
      "count": 10772,
      "max": [
        0.9989690184593201,
        1.0052629709243774
      ],
      "min": [
        0.009971000254154205,
        0.002581000095233321
      ],
      "type": "VEC2"
    },
    {
      "bufferView": 0,
      "componentType": 5125,
      "count": 51333,
      "type": "SCALAR"
    },
    {
      "bufferView": 2,
      "byteOffset": 258528,
      "componentType": 5126,
      "count": 139,
      "max": [
        7.197667121887207,
        6.181954860687256,
        0.7399870157241821
      ],
      "min": [
        -5.086719989776611,
        -6.102136135101318,
        -0.04740900173783302
      ],
      "type": "VEC3"
    },
    {
      "bufferView": 2,
      "byteOffset": 260196,
      "componentType": 5126,
      "count": 139,
      "max": [
        0.3128235638141632,
        0.27370959520339966,
        0.9998549818992615
      ],
      "min": [
        -0.28760281205177307,
        -0.2691064476966858,
        0.9460712671279907
      ],
      "type": "VEC3"
    },
    {
      "bufferView": 1,
      "byteOffset": 86176,
      "componentType": 5126,
      "count": 139,
      "max": [
        1.9651479721069336,
        1.9803470373153687
      ],
      "min": [
        -0.9728220105171204,
        -0.9803469777107239
      ],
      "type": "VEC2"
    },
    {
      "bufferView": 0,
      "byteOffset": 205332,
      "componentType": 5125,
      "count": 702,
      "type": "SCALAR"
    }
  ],
  "asset": {
    "extras": {
      "author": "Satendra Saraswat (https://sketchfab.com/satendra5286)",
      "license": "CC-BY-4.0 (http://creativecommons.org/licenses/by/4.0/)",
      "source": "https://sketchfab.com/3d-models/stylized-hand-painted-tree-f4e3fe276aca48d09d312b6dae100bce",
      "title": "Stylized Hand painted Tree"
    },
    "generator": "Sketchfab-12.66.0",
    "version": "2.0"
  },
  "bufferViews": [
    {
      "buffer": 0,
      "byteLength": 208140,
      "name": "floatBufferViews",
      "target": 34963
    },
    {
      "buffer": 0,
      "byteLength": 87288,
      "byteOffset": 208140,
      "byteStride": 8,
      "name": "floatBufferViews",
      "target": 34962
    },
    {
      "buffer": 0,
      "byteLength": 261864,
      "byteOffset": 295428,
      "byteStride": 12,
      "name": "floatBufferViews",
      "target": 34962
    }
  ],
  "buffers": [
    {
      "byteLength": 557292,
      "uri": "scene.bin"
    }
  ],
  "extensionsRequired": [
    "KHR_materials_pbrSpecularGlossiness"
  ],
  "extensionsUsed": [
    "KHR_materials_pbrSpecularGlossiness"
  ],
  "images": [
    {
      "uri": "textures/Material.001_diffuse.png"
    },
    {
      "uri": "textures/Material.002_diffuse.png"
    }
  ],
  "materials": [
    {
      "alphaMode": "MASK",
      "doubleSided": true,
      "extensions": {
        "KHR_materials_pbrSpecularGlossiness": {
          "diffuseFactor": [
            1.0,
            1.0,
            1.0,
            1.0
          ],
          "diffuseTexture": {
            "index": 0
          },
          "glossinessFactor": 0.4,
          "specularFactor": [
            0.0,
            0.0,
            0.0
          ]
        }
      },
      "name": "Material.001"
    },
    {
      "doubleSided": true,
      "extensions": {
        "KHR_materials_pbrSpecularGlossiness": {
          "diffuseFactor": [
            1.0,
            1.0,
            1.0,
            1.0
          ],
          "diffuseTexture": {
            "index": 1
          },
          "glossinessFactor": 0.4,
          "specularFactor": [
            0.0,
            0.0,
            0.0
          ]
        }
      },
      "name": "Material.002"
    }
  ],
  "meshes": [
    {
      "name": "Object_0",
      "primitives": [
        {
          "attributes": {
            "NORMAL": 1,
            "POSITION": 0,
            "TEXCOORD_0": 2
          },
          "indices": 3,
          "material": 0,
          "mode": 4
        }
      ]
    },
    {
      "name": "Object_1",
      "primitives": [
        {
          "attributes": {
            "NORMAL": 5,
            "POSITION": 4,
            "TEXCOORD_0": 6
          },
          "indices": 7,
          "material": 1,
          "mode": 4
        }
      ]
    }
  ],
  "nodes": [
    {
      "children": [
        1
      ],
      "matrix": [
        1.0,
        0.0,
        0.0,
        0.0,
        0.0,
        2.220446049250313e-16,
        -1.0,
        0.0,
        0.0,
        1.0,
        2.220446049250313e-16,
        0.0,
        0.0,
        0.0,
        0.0,
        1.0
      ],
      "name": "Sketchfab_model"
    },
    {
      "children": [
        2,
        3
      ],
      "name": "Stylized TreeA.obj.cleaner.materialmerger.gles"
    },
    {
      "mesh": 0,
      "name": "Object_2"
    },
    {
      "mesh": 1,
      "name": "Object_3"
    }
  ],
  "samplers": [
    {
      "magFilter": 9729,
      "minFilter": 9987,
      "wrapS": 10497,
      "wrapT": 10497
    }
  ],
  "scene": 0,
  "scenes": [
    {
      "name": "Sketchfab_Scene",
      "nodes": [
        0
      ]
    }
  ],
  "textures": [
    {
      "sampler": 0,
      "source": 0
    },
    {
      "sampler": 0,
      "source": 1
    }
  ]
}
